<svg width="281" height="281" viewBox="0 0 281 281" fill="none" xmlns="http://www.w3.org/2000/svg">
<path d="M129.524 29.2526C129.002 29.3074 127.328 29.4995 125.819 29.6367C104.36 31.8869 83.2299 40.97 65.9967 55.4042C62.8135 58.0386 55.5689 65.2831 52.9345 68.4663C38.665 85.5074 30.3228 104.634 27.2494 127.273C26.5634 132.295 26.5634 149.254 27.2494 154.276C30.3228 176.915 38.665 196.041 52.9345 213.083C55.5689 216.266 62.8135 223.51 65.9967 226.145C83.0378 240.414 102.164 248.756 124.804 251.83C129.825 252.516 146.784 252.516 151.806 251.83C174.445 248.756 193.572 240.414 210.613 226.145C213.796 223.51 221.041 216.266 223.675 213.083C237.945 196.041 246.287 176.915 249.36 154.276C250.046 149.254 250.046 132.295 249.36 127.273C246.287 104.634 237.945 85.5074 223.675 68.4663C221.041 65.2831 213.796 58.0386 210.613 55.4042C193.627 41.1896 174.308 32.7376 151.971 29.7465C149.556 29.4172 146.043 29.28 139.54 29.2251C134.573 29.1702 130.045 29.1977 129.524 29.2526ZM130.896 41.1072C130.896 44.3179 131.115 51.288 131.417 57.9014C131.582 61.1395 131.774 65.7771 131.856 68.1919C132.158 76.7536 133.063 99.2281 133.201 101.231L133.338 103.235L132.103 103.097C131.417 103.042 130.786 102.878 130.676 102.796C130.594 102.686 130.402 100.792 130.292 98.5695C129.798 88.8004 128.179 50.9038 128.014 45.3607L127.85 39.2687L128.618 39.1589C129.03 39.104 129.716 39.0217 130.155 38.9943L130.896 38.9668V41.1072ZM157.157 40.4486C157.184 40.4761 157.267 48.7634 157.349 58.8618C157.459 68.9877 157.596 78.0708 157.678 79.0587C157.761 80.074 157.733 80.9522 157.596 81.007C157.486 81.0894 156.8 81.0894 156.114 81.007L154.852 80.8973L154.66 72.9118C154.55 68.4938 154.413 63.6092 154.358 62.0176C154.138 57.1605 153.946 40.6682 154.111 40.2566C154.221 39.9547 154.523 39.9273 155.675 40.1194C156.471 40.284 157.13 40.4212 157.157 40.4486ZM93.685 49.6415C93.8497 49.8885 95.1394 65.0087 96.731 84.794C97.2524 91.5171 97.7738 97.664 97.8561 98.4323C97.9933 99.8319 97.9659 99.8867 97.0878 100.436C96.5938 100.737 96.0999 100.984 95.9901 100.984C95.9078 100.984 95.7431 100.271 95.6608 99.3928C95.2766 95.8254 93.7948 78.5922 92.752 66.1338C92.1483 58.8069 91.5995 52.2485 91.5172 51.535C91.38 50.3276 91.4074 50.2178 92.1209 49.8336C92.999 49.3671 93.4929 49.2848 93.685 49.6415ZM169.231 55.1572C170 55.4317 170.082 55.5689 170.247 57.133C170.521 59.8772 170.439 72.9942 170.137 72.9942C169.341 72.9942 167.695 72.0611 167.557 71.5398C167.475 71.2105 167.393 67.3138 167.393 62.8957C167.393 53.9773 167.283 54.4986 169.231 55.1572ZM118.547 56.447C118.547 57.1879 118.739 61.2767 118.959 65.585C119.178 69.8933 119.425 75.3541 119.535 77.7141C119.727 82.4889 119.782 82.3242 117.943 82.434C117.038 82.4614 117.038 82.4614 116.983 81.0894C116.928 80.321 116.791 77.9336 116.626 75.7383C116.489 73.543 116.16 68.7956 115.94 65.1734C115.72 61.5511 115.446 57.9563 115.364 57.1879C115.199 55.8158 115.227 55.761 115.967 55.4865C116.407 55.3219 117.175 55.1847 117.669 55.1847C118.547 55.1572 118.547 55.1572 118.547 56.447ZM194.669 60.2065L195.602 60.5906L195.795 64.2678C195.877 66.271 195.932 70.6068 195.877 73.8723L195.795 79.8545L194.642 79.2782L193.489 78.7294L193.407 69.6189C193.352 64.5971 193.38 60.3437 193.435 60.1516C193.544 59.74 193.544 59.74 194.669 60.2065ZM144.561 63.8013C144.726 63.9659 145.11 77.275 145.138 84.0256L145.165 88.0869L143.875 87.8948C143.134 87.8125 142.531 87.7302 142.503 87.7028C142.421 87.6479 141.598 67.3138 141.598 65.338V63.3073L142.997 63.472C143.793 63.5818 144.479 63.719 144.561 63.8013ZM207.759 65.7496C208.088 66.1338 208.143 72.1435 208.225 105.293C208.308 143.354 208.308 144.342 207.814 144.342C207.512 144.342 207.1 144.177 206.853 143.985C206.442 143.683 206.387 140.363 206.25 107.845C206.14 88.1418 206.003 70.25 205.92 68.0821L205.756 64.1306L206.552 64.7069C207.018 65.0361 207.539 65.5027 207.759 65.7496ZM183.144 71.3751C183.281 71.4849 183.418 73.049 183.446 74.8327C183.583 80.8973 183.611 118.08 183.473 118.19C183.418 118.245 182.924 118.108 182.376 117.888L181.388 117.477V94.124V70.7988L182.156 70.9635C182.568 71.0733 183.007 71.2379 183.144 71.3751ZM107.406 72.9118C107.488 73.6528 107.625 75.3267 107.708 76.6987C107.79 78.0434 107.982 81.1168 108.147 83.5042C108.476 88.3339 108.421 88.6358 106.857 88.6358C106.034 88.6358 105.924 88.5534 105.814 87.7302C105.54 86.1111 104.579 72.61 104.716 72.3904C104.854 72.1984 106.281 71.7044 106.939 71.6495C107.104 71.6221 107.323 72.1984 107.406 72.9118ZM62.0177 79.9094C62.3195 82.8182 62.9232 88.9102 63.3623 93.438C63.8288 97.9658 64.213 101.808 64.213 101.972C64.213 102.302 62.1 103.344 61.8804 103.125C61.7432 102.988 58.9991 78.702 58.9991 77.6043C58.9991 76.9457 61.1121 74.1741 61.3865 74.476C61.4688 74.5309 61.7432 76.9732 62.0177 79.9094ZM169.615 82.7907L170.411 83.2572L170.439 89.1846C170.466 92.4227 170.521 96.0449 170.521 97.2249C170.576 99.6946 170.274 100.106 168.792 99.5849L167.941 99.283V96.9231C167.941 95.6059 167.859 91.7915 167.749 88.4162L167.585 82.3242H168.216C168.545 82.3242 169.176 82.5438 169.615 82.7907ZM74.0644 93.438C74.5584 98.7068 75.3542 107.598 75.8756 113.196L76.8086 123.349L75.7384 124.419L74.6956 125.49L74.5035 123.322C74.3937 122.114 73.8449 116.516 73.2686 110.863C72.6924 105.21 71.8691 97.0054 71.4575 92.6422L70.6891 84.7391L71.7594 83.7512C72.7198 82.8456 72.8296 82.8182 73.0217 83.3121C73.1314 83.5865 73.5979 88.1418 74.0644 93.438ZM53.5108 96.7584C54.1145 102.164 55.7061 116.544 57.0782 128.7C58.4503 140.857 59.74 152.574 59.987 154.77C60.2065 156.965 60.5907 160.285 60.8102 162.179C61.1944 165.389 61.1944 165.609 60.7553 165.938C60.0968 166.432 59.8223 166.377 59.8223 165.801C59.8223 165.554 59.5754 163.468 59.2735 161.218C58.7796 157.459 57.9563 151.092 56.1177 136.795C55.7336 133.914 54.9927 128.179 54.4713 124.035C53.9224 119.892 53.1266 113.717 52.6876 110.314C52.2485 106.912 51.5076 101.094 51.0411 97.3347C50.5471 93.6027 50.2453 90.2822 50.3276 89.9255C50.5197 89.1846 52.1387 86.6051 52.3034 86.7697C52.3583 86.8521 52.9071 91.325 53.5108 96.7584ZM45.1137 108.586C45.5254 111.879 46.2937 117.888 46.8151 121.977C47.3365 126.038 47.9951 131.115 48.2969 133.228L48.8183 137.07L48.2421 137.564C47.9128 137.838 47.5835 137.948 47.4737 137.838C47.3639 137.728 47.1444 136.631 46.9798 135.423C46.8151 134.216 45.7998 127.163 44.7021 119.782L42.7538 106.335L43.3849 104.469C43.7142 103.454 44.071 102.631 44.1533 102.631C44.2631 102.631 44.6747 105.32 45.1137 108.586ZM195.767 104.991C196.151 105.375 196.206 107.076 196.206 119.672V133.914H195.438C193.764 133.914 193.791 134.326 193.682 118.739L193.599 104.552H194.477C194.944 104.552 195.548 104.744 195.767 104.991ZM135.698 109.903C141.9 110.836 147.306 112.565 152.657 115.309C156.114 117.092 157.761 118.327 161.603 122.005C167.31 127.465 170.823 132.24 174.116 138.991C178.918 148.815 180.784 157.514 183.144 180.839C184.214 191.294 185.614 210.256 185.916 218.022C185.998 220.272 186.19 223.977 186.355 226.254C186.657 231.084 187.013 230.426 182.76 232.484C176.86 235.338 171.18 237.313 163.688 239.152C154.523 241.402 148.595 242.116 139.54 242.143L132.954 242.17L133.009 239.015C133.009 237.286 133.173 233.252 133.338 230.096C134.161 214.811 133.996 195.52 132.926 184.818C132.323 178.671 131.143 171.207 130.484 169.56C130.347 169.204 130.978 168.902 133.695 167.969C138.662 166.24 142.97 164.072 143.628 163.002C144.808 160.971 142.695 158.063 140.006 158.063C139.54 158.063 138.14 158.556 136.85 159.133C130.703 161.959 118.382 165.28 111.275 166.021C106.363 166.542 98.7343 166.24 93.4381 165.28C90.5567 164.758 85.3977 162.81 81.0894 160.587C76.1225 158.008 73.0765 154.577 72.171 150.516C71.677 148.321 71.8142 143.93 72.4454 141.46C73.1314 138.744 75.0523 134.792 76.8086 132.487C84.6294 122.197 100.765 113.278 117.312 110.15C122.581 109.162 130.045 109.052 135.698 109.903ZM220.355 110.754C221.342 111.165 221.452 111.275 221.452 112.208C221.507 119.699 221.342 136.823 221.205 137.536C221.178 137.783 219.751 137.811 219.147 137.591C218.763 137.454 218.708 135.972 218.708 123.871C218.708 115.199 218.818 110.314 218.982 110.314C219.12 110.314 219.751 110.507 220.355 110.754ZM232.346 125.819L233.334 126.23L233.142 148.952C232.923 177.903 232.895 178.753 231.853 181.251C230.151 185.339 230.233 186.163 230.398 168.216C230.453 159.242 230.59 150.159 230.645 148.046C230.7 145.933 230.755 139.979 230.782 134.792C230.782 128.536 230.865 125.407 231.057 125.407C231.221 125.407 231.798 125.599 232.346 125.819ZM67.3138 132.652C67.4785 134.875 67.4236 135.094 66.6278 136.85L65.7497 138.716L65.4204 135.972C64.899 131.582 64.899 131.389 65.9418 130.731C66.4083 130.402 66.9022 130.182 66.9845 130.237C67.0669 130.292 67.2315 131.389 67.3138 132.652ZM50.3551 149.199C50.602 151.449 52.5229 166.377 53.5108 173.704C54.9927 185.037 55.1024 186.656 54.4438 185.97C54.3615 185.888 53.7303 182.074 53.0718 177.491C48.7909 147.909 48.8183 148.101 49.1751 147.882C49.916 147.388 50.163 147.662 50.3551 149.199ZM70.1129 161.767C70.2775 162.453 71.0733 169.89 71.0733 170.795C71.0733 171.564 70.0854 172.277 69.6464 171.838C69.5092 171.701 69.1524 169.368 68.878 166.679C68.5761 163.962 68.2743 161.136 68.192 160.395L68.0273 159.023L68.9878 160.121C69.5366 160.724 70.0305 161.465 70.1129 161.767ZM92.2581 172.113C92.5599 172.387 92.752 173.485 92.999 176.448C93.4106 181.799 93.4655 181.388 92.3404 181.388C91.1879 181.388 91.2153 181.47 90.8311 176.64C90.4469 171.728 90.4469 171.783 91.1879 171.783C91.5446 171.783 92.0111 171.948 92.2581 172.113ZM113.992 172.524C114.047 172.799 114.184 174.445 114.294 176.174C114.376 177.903 114.623 181.799 114.842 184.818C115.611 195.904 115.638 197.304 115.172 197.304C114.65 197.304 114.595 196.892 113.992 189.071C113.772 185.833 113.361 180.729 113.086 177.738C112.839 174.747 112.674 172.25 112.757 172.195C113.059 171.866 113.854 172.113 113.992 172.524ZM62.4018 177.793C62.5665 178.04 63.6093 186.821 64.899 198.813C65.2832 202.435 65.6674 205.92 65.7497 206.579L65.8869 207.759L65.2009 207.32C64.6795 206.963 64.4874 206.606 64.4874 205.975C64.4874 204.246 63.3074 192.858 62.4018 185.888C61.8804 181.937 61.4688 178.451 61.4688 178.122C61.4688 177.546 62.1274 177.326 62.4018 177.793ZM220.766 189.263L220.574 200.734L219.888 201.749C218.324 204.054 218.406 204.493 218.489 191.651L218.543 179.878L219.559 178.836C220.108 178.287 220.656 177.82 220.766 177.82C220.849 177.82 220.849 182.979 220.766 189.263ZM195.383 207.457C195.52 223.401 195.493 224.635 195.054 225.129C194.779 225.431 194.532 225.623 194.45 225.541C194.258 225.321 193.983 190.553 194.203 190.361C194.313 190.251 194.587 190.196 194.834 190.224C195.191 190.306 195.273 192.255 195.383 207.457ZM105.759 196.535C105.951 198.237 106.637 206.387 106.912 210.229C107.076 212.808 107.076 212.89 106.473 213.083C106.143 213.192 105.759 213.165 105.649 213.028C105.457 212.836 104.854 206.744 104.113 197.359L103.921 195.108H104.771C105.567 195.108 105.622 195.163 105.759 196.535ZM84.1903 206.14C84.3824 206.332 84.5196 207.018 84.5196 207.704C84.5196 208.417 84.8489 212.122 85.2056 215.964C86.2484 226.474 86.3307 227.901 85.8642 227.626C85.1508 227.215 84.5196 226.584 84.6568 226.419C84.7117 226.309 84.6019 224.937 84.3824 223.373C84.1903 221.781 83.9433 219.202 83.8336 217.61C83.7238 216.019 83.4768 213.11 83.2573 211.162C82.7359 206.359 82.7634 205.811 83.3671 205.811C83.6415 205.811 83.9982 205.948 84.1903 206.14ZM97.1701 224.608C97.2524 225.212 97.4171 227.462 97.5268 229.602C97.7189 233.718 97.6366 234.02 96.5115 233.17C96.1822 232.923 95.9627 231.88 95.6334 228.752C95.0571 223.099 95.0297 223.318 96.0999 223.428C96.8957 223.51 97.0054 223.62 97.1701 224.608Z" fill="url(#paint0_linear)"/>
<path d="M87.3736 123.047C84.5197 124.282 84.3002 128.151 86.9894 129.523C88.9378 130.511 90.9136 130.045 91.9289 128.343C93.8498 125.215 90.7215 121.593 87.3736 123.047Z" fill="url(#paint1_linear)"/>
<path d="M105.979 125.682C103.344 127.301 103.344 131.197 105.979 132.816C108.586 134.381 111.961 132.322 111.961 129.194C111.961 126.176 108.503 124.145 105.979 125.682Z" fill="url(#paint2_linear)"/>
<defs>
<linearGradient id="paint0_linear" x1="138.305" y1="252.344" x2="138.305" y2="29.1952" gradientUnits="userSpaceOnUse">
<stop stop-color="#C45C7B"/>
<stop offset="1" stop-color="#A579B7"/>
</linearGradient>
<linearGradient id="paint1_linear" x1="88.8062" y1="130.036" x2="88.8062" y2="122.716" gradientUnits="userSpaceOnUse">
<stop stop-color="#C45C7B"/>
<stop offset="1" stop-color="#A579B7"/>
</linearGradient>
<linearGradient id="paint2_linear" x1="107.982" y1="133.352" x2="107.982" y2="125.156" gradientUnits="userSpaceOnUse">
<stop stop-color="#C45C7B"/>
<stop offset="1" stop-color="#A579B7"/>
</linearGradient>
</defs>
</svg>
